<svg aria-hidden="true" style="position: absolute; width: 0; height: 0; overflow: hidden;" version="1.1" xmlns="http://www.w3.org/2000/svg" xmlns:xlink="http://www.w3.org/1999/xlink">
  <defs>
    <symbol id="search-icon" viewBox="0 0 15 15">
      <path fill-rule="evenodd" clip-rule="evenodd" d="M9.87336 9.30503H10.5057L14.5 13.3073L13.3073 14.5L9.30503 10.5057V9.87336L9.08891 9.64923C8.17639 10.4337 6.99171 10.9059 5.70297 10.9059C2.82933 10.9059 0.5 8.57662 0.5 5.70297C0.5 2.82933 2.82933 0.5 5.70297 0.5C8.57662 0.5 10.9059 2.82933 10.9059 5.70297C10.9059 6.99171 10.4337 8.17639 9.64923 9.08891L9.87336 9.30503ZM2.19702 5.80302C2.19702 7.79837 3.80773 9.40908 5.80308 9.40908C7.79844 9.40908 9.40914 7.79837 9.40914 5.80302C9.40914 3.80767 7.79844 2.19696 5.80308 2.19696C3.80773 2.19696 2.19702 3.80767 2.19702 5.80302Z" fill="#CACEDB"/>
    </symbol>
    <symbol id='pan-icon' viewBox="0 0 15 15">
      <path fill-rule="evenodd" clip-rule="evenodd" d="M13.3213 4.10853C13.5596 4.34683 13.5596 4.73177 13.3213 4.97007L12.2031 6.08825L9.91174 3.7969L11.0299 2.67873C11.2682 2.44042 11.6532 2.44042 11.8915 2.67873L13.3213 4.10853ZM2.5 13.5V11.2086L9.25795 4.4507L11.5493 6.74205L4.79135 13.5H2.5Z" />
    </symbol>
    <symbol id='list-icon' viewBox="0 0 15 15">
      <path fill-rule="evenodd" clip-rule="evenodd" d="M2.5 3.5V4.85714H7.83333V3.5H2.5ZM7.83333 7.57142H2.5V6.21428H7.83333V7.57142ZM2.5 10.2857H7.83333V8.92857H2.5V10.2857ZM2.5 13H7.83333V11.6429H2.5V13ZM14.5 3.5H9.16663V13H14.5V3.5Z"/>
    </symbol>
    <symbol id='order-icon' viewBox="0 0 15 15">
      <path fill-rule="evenodd" clip-rule="evenodd" d="M7.5 1H3.5C2.95 1 2.505 1.45 2.505 2L2.5 10C2.5 10.55 2.945 11 3.495 11H9.5C10.05 11 10.5 10.55 10.5 10V4L7.5 1ZM8.5 8H7V9.5H6V8H4.5V7H6V5.5H7V7H8.5V8ZM7 1.75V4.5H9.75L7 1.75Z" />
    </symbol>
    <symbol id='shape-icon' viewBox="0 0 18 18">
      <path fill-rule="evenodd" clip-rule="evenodd" d="M6.17647 8.11538H2.5V3.5H6.17647V8.11538ZM6.17647 13.5H2.5V8.88461H6.17647V13.5ZM6.91174 13.5H10.5882V8.88461H6.91174V13.5ZM15 13.5H11.3235V8.88461H15V13.5ZM6.91174 8.11538H10.5882V3.5H6.91174V8.11538ZM11.3235 8.11538V3.5H15V8.11538H11.3235Z"/>
    </symbol>
    <symbol id='table-icon' viewBox="0 0 15 15">
      <path fill-rule="evenodd" clip-rule="evenodd" d="M10.8949 2H2.60538C1.99749 2 1.50012 2.5 1.50012 3.11111V4.77778H12.0001V3.11111C12.0001 2.5 11.5028 2 10.8949 2ZM10.8947 12H9.23682V5.88889H12V10.8889C12 11.5 11.5026 12 10.8947 12ZM8.13157 5.9H5.36841V12H8.13157V5.9ZM2.60526 12C1.99737 12 1.5 11.5 1.5 10.8889V5.88889H4.26316V12H2.60526Z"/>
    </symbol>
     <symbol id='person-icon' viewBox="0 0 13 13">
      <path fill-rule="evenodd" clip-rule="evenodd" d="M9.875 3.125C9.875 4.85156 8.47656 6.25 6.75 6.25C5.02344 6.25 3.625 4.85156 3.625 3.125C3.625 1.39844 5.02344 0 6.75 0C8.47656 0 9.875 1.39844 9.875 3.125ZM0.5 10.9375C0.5 8.85938 4.66406 7.8125 6.75 7.8125C8.83594 7.8125 13 8.85938 13 10.9375V12.5H0.5V10.9375Z"/>
     </symbol>
    <symbol id='error-icon' viewBox="0 0 15 15">
      <path fill-rule="evenodd" clip-rule="evenodd" d="M7.25 1.5C4.076 1.5 1.5 4.076 1.5 7.25C1.5 10.424 4.076 13 7.25 13C10.424 13 13 10.424 13 7.25C13 4.076 10.424 1.5 7.25 1.5ZM7.82505 10.125H6.67505V8.97501H7.82505V10.125ZM6.67505 7.825H7.82505V4.375H6.67505V7.825Z"/>
    </symbol>
    <symbol id="burger-icon" viewBox="0 0 32 32">
      <path d="M4 16H28" stroke-width="3" stroke-linecap="round" stroke-linejoin="round"/>
      <path d="M4 8H28" stroke-width="3" stroke-linecap="round" stroke-linejoin="round"/>
      <path d="M4 24H28" stroke-width="3" stroke-linecap="round" stroke-linejoin="round"/>
    </symbol>
    <symbol id="close-icon" viewBox="0 0 32 32">
      <path d="M24 8L8 24"  stroke-width="3" stroke-linecap="round" stroke-linejoin="round"/>
      <path d="M8 8L24 24"  stroke-width="3" stroke-linecap="round" stroke-linejoin="round"/>
    </symbol>
  </defs>
</svg>
