<svg width="20" height="16" viewBox="0 0 20 16" fill="none" xmlns="http://www.w3.org/2000/svg">
<path d="M1.81818 0H18.1818C19.1818 0 20 0.80089 20 1.77976V5.33037H18.1818V1.76196H1.81818V14.2469H18.1818V10.6696H20V14.238C20 15.2169 19.1818 16 18.1818 16H1.81818C0.818182 16 0 15.2169 0 14.238V1.77976C0 0.791991 0.818182 0 1.81818 0ZM10.9091 11.5595L7.27273 8L10.9091 4.44049V7.11012H20V8.88988H10.9091V11.5595ZM1.81818 0H18.1818C19.1818 0 20 0.80089 20 1.77976V5.33037H18.1818V1.76196H1.81818V14.2469H18.1818V10.6696H20V14.238C20 15.2169 19.1818 16 18.1818 16H1.81818C0.818182 16 0 15.2169 0 14.238V1.77976C0 0.791991 0.818182 0 1.81818 0ZM10.9091 11.5595L7.27273 8L10.9091 4.44049V7.11012H20V8.88988H10.9091V11.5595Z" fill="#C6CACC"/>
</svg>
